BABELSIM_MESH 2
vertices 132
0 0 0
0.03125 0 0
0.0625 0 0
0.09375 0 0
0.125 0 0
0.15625 0 0
0.1875 0 0
0.21875 0 0
0.25 0 0
0.28125 0 0
0.3125 0 0
0.34375 0 0
0.375 0 0
0.40625 0 0
0.4375 0 0
0.46875 0 0
0.5 0 0
0.53125 0 0
0.5625 0 0
0.59375 0 0
0.625 0 0
0.65625 0 0
0.6875 0 0
0.71875 0 0
0.75 0 0
0.78125 0 0
0.8125 0 0
0.84375 0 0
0.875 0 0
0.90625 0 0
0.9375 0 0
0.96875 0 0
1 0 0
0 1 0
0.03125 1 0
0.0625 1 0
0.09375 1 0
0.125 1 0
0.15625 1 0
0.1875 1 0
0.21875 1 0
0.25 1 0
0.28125 1 0
0.3125 1 0
0.34375 1 0
0.375 1 0
0.40625 1 0
0.4375 1 0
0.46875 1 0
0.5 1 0
0.53125 1 0
0.5625 1 0
0.59375 1 0
0.625 1 0
0.65625 1 0
0.6875 1 0
0.71875 1 0
0.75 1 0
0.78125 1 0
0.8125 1 0
0.84375 1 0
0.875 1 0
0.90625 1 0
0.9375 1 0
0.96875 1 0
1 1 0
0 0 1
0.03125 0 1
0.0625 0 1
0.09375 0 1
0.125 0 1
0.15625 0 1
0.1875 0 1
0.21875 0 1
0.25 0 1
0.28125 0 1
0.3125 0 1
0.34375 0 1
0.375 0 1
0.40625 0 1
0.4375 0 1
0.46875 0 1
0.5 0 1
0.53125 0 1
0.5625 0 1
0.59375 0 1
0.625 0 1
0.65625 0 1
0.6875 0 1
0.71875 0 1
0.75 0 1
0.78125 0 1
0.8125 0 1
0.84375 0 1
0.875 0 1
0.90625 0 1
0.9375 0 1
0.96875 0 1
1 0 1
0 1 1
0.03125 1 1
0.0625 1 1
0.09375 1 1
0.125 1 1
0.15625 1 1
0.1875 1 1
0.21875 1 1
0.25 1 1
0.28125 1 1
0.3125 1 1
0.34375 1 1
0.375 1 1
0.40625 1 1
0.4375 1 1
0.46875 1 1
0.5 1 1
0.53125 1 1
0.5625 1 1
0.59375 1 1
0.625 1 1
0.65625 1 1
0.6875 1 1
0.71875 1 1
0.75 1 1
0.78125 1 1
0.8125 1 1
0.84375 1 1
0.875 1 1
0.90625 1 1
0.9375 1 1
0.96875 1 1
1 1 1
cells 32
0 1 34 33 66 67 100 99
1 2 35 34 67 68 101 100
2 3 36 35 68 69 102 101
3 4 37 36 69 70 103 102
4 5 38 37 70 71 104 103
5 6 39 38 71 72 105 104
6 7 40 39 72 73 106 105
7 8 41 40 73 74 107 106
8 9 42 41 74 75 108 107
9 10 43 42 75 76 109 108
10 11 44 43 76 77 110 109
11 12 45 44 77 78 111 110
12 13 46 45 78 79 112 111
13 14 47 46 79 80 113 112
14 15 48 47 80 81 114 113
15 16 49 48 81 82 115 114
16 17 50 49 82 83 116 115
17 18 51 50 83 84 117 116
18 19 52 51 84 85 118 117
19 20 53 52 85 86 119 118
20 21 54 53 86 87 120 119
21 22 55 54 87 88 121 120
22 23 56 55 88 89 122 121
23 24 57 56 89 90 123 122
24 25 58 57 90 91 124 123
25 26 59 58 91 92 125 124
26 27 60 59 92 93 126 125
27 28 61 60 93 94 127 126
28 29 62 61 94 95 128 127
29 30 63 62 95 96 129 128
30 31 64 63 96 97 130 129
31 32 65 64 97 98 131 130
patches 6
patch inlet generic 1
0 66 99 33
patch outlet generic 1
32 65 131 98
patch lower symmetry 32
0 1 67 66
1 2 68 67
2 3 69 68
3 4 70 69
4 5 71 70
5 6 72 71
6 7 73 72
7 8 74 73
8 9 75 74
9 10 76 75
10 11 77 76
11 12 78 77
12 13 79 78
13 14 80 79
14 15 81 80
15 16 82 81
16 17 83 82
17 18 84 83
18 19 85 84
19 20 86 85
20 21 87 86
21 22 88 87
22 23 89 88
23 24 90 89
24 25 91 90
25 26 92 91
26 27 93 92
27 28 94 93
28 29 95 94
29 30 96 95
30 31 97 96
31 32 98 97
patch upper symmetry 32
33 99 100 34
34 100 101 35
35 101 102 36
36 102 103 37
37 103 104 38
38 104 105 39
39 105 106 40
40 106 107 41
41 107 108 42
42 108 109 43
43 109 110 44
44 110 111 45
45 111 112 46
46 112 113 47
47 113 114 48
48 114 115 49
49 115 116 50
50 116 117 51
51 117 118 52
52 118 119 53
53 119 120 54
54 120 121 55
55 121 122 56
56 122 123 57
57 123 124 58
58 124 125 59
59 125 126 60
60 126 127 61
61 127 128 62
62 128 129 63
63 129 130 64
64 130 131 65
patch front symmetry 32
0 33 34 1
1 34 35 2
2 35 36 3
3 36 37 4
4 37 38 5
5 38 39 6
6 39 40 7
7 40 41 8
8 41 42 9
9 42 43 10
10 43 44 11
11 44 45 12
12 45 46 13
13 46 47 14
14 47 48 15
15 48 49 16
16 49 50 17
17 50 51 18
18 51 52 19
19 52 53 20
20 53 54 21
21 54 55 22
22 55 56 23
23 56 57 24
24 57 58 25
25 58 59 26
26 59 60 27
27 60 61 28
28 61 62 29
29 62 63 30
30 63 64 31
31 64 65 32
patch back symmetry 32
66 67 100 99
67 68 101 100
68 69 102 101
69 70 103 102
70 71 104 103
71 72 105 104
72 73 106 105
73 74 107 106
74 75 108 107
75 76 109 108
76 77 110 109
77 78 111 110
78 79 112 111
79 80 113 112
80 81 114 113
81 82 115 114
82 83 116 115
83 84 117 116
84 85 118 117
85 86 119 118
86 87 120 119
87 88 121 120
88 89 122 121
89 90 123 122
90 91 124 123
91 92 125 124
92 93 126 125
93 94 127 126
94 95 128 127
95 96 129 128
96 97 130 129
97 98 131 130
end
