BABELSIM_MESH 3
vertices
132
0 0 0
0.03125 0 0
0.0625 0 0
0.09375 0 0
0.125 0 0
0.15625 0 0
0.1875 0 0
0.21875 0 0
0.25 0 0
0.28125 0 0
0.3125 0 0
0.34375 0 0
0.375 0 0
0.40625 0 0
0.4375 0 0
0.46875 0 0
0.5 0 0
0.53125 0 0
0.5625 0 0
0.59375 0 0
0.625 0 0
0.65625 0 0
0.6875 0 0
0.71875 0 0
0.75 0 0
0.78125 0 0
0.8125 0 0
0.84375 0 0
0.875 0 0
0.90625 0 0
0.9375 0 0
0.96875 0 0
1 0 0
0 1 0
0.03125 1 0
0.0625 1 0
0.09375 1 0
0.125 1 0
0.15625 1 0
0.1875 1 0
0.21875 1 0
0.25 1 0
0.28125 1 0
0.3125 1 0
0.34375 1 0
0.375 1 0
0.40625 1 0
0.4375 1 0
0.46875 1 0
0.5 1 0
0.53125 1 0
0.5625 1 0
0.59375 1 0
0.625 1 0
0.65625 1 0
0.6875 1 0
0.71875 1 0
0.75 1 0
0.78125 1 0
0.8125 1 0
0.84375 1 0
0.875 1 0
0.90625 1 0
0.9375 1 0
0.96875 1 0
1 1 0
0 0 1
0.03125 0 1
0.0625 0 1
0.09375 0 1
0.125 0 1
0.15625 0 1
0.1875 0 1
0.21875 0 1
0.25 0 1
0.28125 0 1
0.3125 0 1
0.34375 0 1
0.375 0 1
0.40625 0 1
0.4375 0 1
0.46875 0 1
0.5 0 1
0.53125 0 1
0.5625 0 1
0.59375 0 1
0.625 0 1
0.65625 0 1
0.6875 0 1
0.71875 0 1
0.75 0 1
0.78125 0 1
0.8125 0 1
0.84375 0 1
0.875 0 1
0.90625 0 1
0.9375 0 1
0.96875 0 1
1 0 1
0 1 1
0.03125 1 1
0.0625 1 1
0.09375 1 1
0.125 1 1
0.15625 1 1
0.1875 1 1
0.21875 1 1
0.25 1 1
0.28125 1 1
0.3125 1 1
0.34375 1 1
0.375 1 1
0.40625 1 1
0.4375 1 1
0.46875 1 1
0.5 1 1
0.53125 1 1
0.5625 1 1
0.59375 1 1
0.625 1 1
0.65625 1 1
0.6875 1 1
0.71875 1 1
0.75 1 1
0.78125 1 1
0.8125 1 1
0.84375 1 1
0.875 1 1
0.90625 1 1
0.9375 1 1
0.96875 1 1
1 1 1
faces
161
face 4 0 -1 0 0 66 99 33
face 4 0 1 -1 1 34 100 67
face 4 0 -1 2 0 1 67 66
face 4 0 -1 3 33 99 100 34
face 4 0 -1 4 0 33 34 1
face 4 0 -1 5 66 67 100 99
face 4 1 2 -1 2 35 101 68
face 4 1 -1 2 1 2 68 67
face 4 1 -1 3 34 100 101 35
face 4 1 -1 4 1 34 35 2
face 4 1 -1 5 67 68 101 100
face 4 2 3 -1 3 36 102 69
face 4 2 -1 2 2 3 69 68
face 4 2 -1 3 35 101 102 36
face 4 2 -1 4 2 35 36 3
face 4 2 -1 5 68 69 102 101
face 4 3 4 -1 4 37 103 70
face 4 3 -1 2 3 4 70 69
face 4 3 -1 3 36 102 103 37
face 4 3 -1 4 3 36 37 4
face 4 3 -1 5 69 70 103 102
face 4 4 5 -1 5 38 104 71
face 4 4 -1 2 4 5 71 70
face 4 4 -1 3 37 103 104 38
face 4 4 -1 4 4 37 38 5
face 4 4 -1 5 70 71 104 103
face 4 5 6 -1 6 39 105 72
face 4 5 -1 2 5 6 72 71
face 4 5 -1 3 38 104 105 39
face 4 5 -1 4 5 38 39 6
face 4 5 -1 5 71 72 105 104
face 4 6 7 -1 7 40 106 73
face 4 6 -1 2 6 7 73 72
face 4 6 -1 3 39 105 106 40
face 4 6 -1 4 6 39 40 7
face 4 6 -1 5 72 73 106 105
face 4 7 8 -1 8 41 107 74
face 4 7 -1 2 7 8 74 73
face 4 7 -1 3 40 106 107 41
face 4 7 -1 4 7 40 41 8
face 4 7 -1 5 73 74 107 106
face 4 8 9 -1 9 42 108 75
face 4 8 -1 2 8 9 75 74
face 4 8 -1 3 41 107 108 42
face 4 8 -1 4 8 41 42 9
face 4 8 -1 5 74 75 108 107
face 4 9 10 -1 10 43 109 76
face 4 9 -1 2 9 10 76 75
face 4 9 -1 3 42 108 109 43
face 4 9 -1 4 9 42 43 10
face 4 9 -1 5 75 76 109 108
face 4 10 11 -1 11 44 110 77
face 4 10 -1 2 10 11 77 76
face 4 10 -1 3 43 109 110 44
face 4 10 -1 4 10 43 44 11
face 4 10 -1 5 76 77 110 109
face 4 11 12 -1 12 45 111 78
face 4 11 -1 2 11 12 78 77
face 4 11 -1 3 44 110 111 45
face 4 11 -1 4 11 44 45 12
face 4 11 -1 5 77 78 111 110
face 4 12 13 -1 13 46 112 79
face 4 12 -1 2 12 13 79 78
face 4 12 -1 3 45 111 112 46
face 4 12 -1 4 12 45 46 13
face 4 12 -1 5 78 79 112 111
face 4 13 14 -1 14 47 113 80
face 4 13 -1 2 13 14 80 79
face 4 13 -1 3 46 112 113 47
face 4 13 -1 4 13 46 47 14
face 4 13 -1 5 79 80 113 112
face 4 14 15 -1 15 48 114 81
face 4 14 -1 2 14 15 81 80
face 4 14 -1 3 47 113 114 48
face 4 14 -1 4 14 47 48 15
face 4 14 -1 5 80 81 114 113
face 4 15 16 -1 16 49 115 82
face 4 15 -1 2 15 16 82 81
face 4 15 -1 3 48 114 115 49
face 4 15 -1 4 15 48 49 16
face 4 15 -1 5 81 82 115 114
face 4 16 17 -1 17 50 116 83
face 4 16 -1 2 16 17 83 82
face 4 16 -1 3 49 115 116 50
face 4 16 -1 4 16 49 50 17
face 4 16 -1 5 82 83 116 115
face 4 17 18 -1 18 51 117 84
face 4 17 -1 2 17 18 84 83
face 4 17 -1 3 50 116 117 51
face 4 17 -1 4 17 50 51 18
face 4 17 -1 5 83 84 117 116
face 4 18 19 -1 19 52 118 85
face 4 18 -1 2 18 19 85 84
face 4 18 -1 3 51 117 118 52
face 4 18 -1 4 18 51 52 19
face 4 18 -1 5 84 85 118 117
face 4 19 20 -1 20 53 119 86
face 4 19 -1 2 19 20 86 85
face 4 19 -1 3 52 118 119 53
face 4 19 -1 4 19 52 53 20
face 4 19 -1 5 85 86 119 118
face 4 20 21 -1 21 54 120 87
face 4 20 -1 2 20 21 87 86
face 4 20 -1 3 53 119 120 54
face 4 20 -1 4 20 53 54 21
face 4 20 -1 5 86 87 120 119
face 4 21 22 -1 22 55 121 88
face 4 21 -1 2 21 22 88 87
face 4 21 -1 3 54 120 121 55
face 4 21 -1 4 21 54 55 22
face 4 21 -1 5 87 88 121 120
face 4 22 23 -1 23 56 122 89
face 4 22 -1 2 22 23 89 88
face 4 22 -1 3 55 121 122 56
face 4 22 -1 4 22 55 56 23
face 4 22 -1 5 88 89 122 121
face 4 23 24 -1 24 57 123 90
face 4 23 -1 2 23 24 90 89
face 4 23 -1 3 56 122 123 57
face 4 23 -1 4 23 56 57 24
face 4 23 -1 5 89 90 123 122
face 4 24 25 -1 25 58 124 91
face 4 24 -1 2 24 25 91 90
face 4 24 -1 3 57 123 124 58
face 4 24 -1 4 24 57 58 25
face 4 24 -1 5 90 91 124 123
face 4 25 26 -1 26 59 125 92
face 4 25 -1 2 25 26 92 91
face 4 25 -1 3 58 124 125 59
face 4 25 -1 4 25 58 59 26
face 4 25 -1 5 91 92 125 124
face 4 26 27 -1 27 60 126 93
face 4 26 -1 2 26 27 93 92
face 4 26 -1 3 59 125 126 60
face 4 26 -1 4 26 59 60 27
face 4 26 -1 5 92 93 126 125
face 4 27 28 -1 28 61 127 94
face 4 27 -1 2 27 28 94 93
face 4 27 -1 3 60 126 127 61
face 4 27 -1 4 27 60 61 28
face 4 27 -1 5 93 94 127 126
face 4 28 29 -1 29 62 128 95
face 4 28 -1 2 28 29 95 94
face 4 28 -1 3 61 127 128 62
face 4 28 -1 4 28 61 62 29
face 4 28 -1 5 94 95 128 127
face 4 29 30 -1 30 63 129 96
face 4 29 -1 2 29 30 96 95
face 4 29 -1 3 62 128 129 63
face 4 29 -1 4 29 62 63 30
face 4 29 -1 5 95 96 129 128
face 4 30 31 -1 31 64 130 97
face 4 30 -1 2 30 31 97 96
face 4 30 -1 3 63 129 130 64
face 4 30 -1 4 30 63 64 31
face 4 30 -1 5 96 97 130 129
face 4 31 -1 1 32 65 131 98
face 4 31 -1 2 31 32 98 97
face 4 31 -1 3 64 130 131 65
face 4 31 -1 4 31 64 65 32
face 4 31 -1 5 97 98 131 130
patches
6
patch
hot
generic
patch
cold
generic
patch
lower
symmetry
patch
upper
symmetry
patch
front
symmetry
patch
back
symmetry
end
